<svg width="24" height="24" viewBox="0 0 24 24" fill="none" xmlns="http://www.w3.org/2000/svg">
<path fill-rule="evenodd" clip-rule="evenodd" d="M3.75 2.99995C3.33579 2.99995 3 3.33573 3 3.74995C3 4.16416 3.33579 4.49995 3.75 4.49995H4.95943L5.53333 6.22166L7.44871 12.9255L6.07918 15.6645C5.96293 15.897 5.97536 16.1731 6.11201 16.3942C6.24867 16.6154 6.49007 16.7499 6.75 16.7499H18.25C18.6642 16.7499 19 16.4142 19 15.9999C19 15.5857 18.6642 15.2499 18.25 15.2499H7.96353L8.71353 13.7499H17.25C17.55 13.7499 17.8212 13.5711 17.9394 13.2954L20.9394 6.29539C21.0387 6.06366 21.0149 5.79755 20.8761 5.58708C20.7373 5.37661 20.5021 5.24995 20.25 5.24995H13H6.79057L6.21151 3.51278C6.10943 3.20652 5.82282 2.99995 5.5 2.99995H3.75ZM8.81573 12.2499L7.2443 6.74995H13H19.1126L16.7555 12.2499H8.81573ZM9.25 19.4999C9.25 20.3284 8.57843 20.9999 7.75 20.9999C6.92157 20.9999 6.25 20.3284 6.25 19.4999C6.25 18.6715 6.92157 17.9999 7.75 17.9999C8.57843 17.9999 9.25 18.6715 9.25 19.4999ZM19.25 19.4999C19.25 20.3284 18.5784 20.9999 17.75 20.9999C16.9216 20.9999 16.25 20.3284 16.25 19.4999C16.25 18.6715 16.9216 17.9999 17.75 17.9999C18.5784 17.9999 19.25 18.6715 19.25 19.4999Z" fill="black"/>
</svg>
