<svg width="25" height="26" viewBox="0 0 25 26" fill="none" xmlns="http://www.w3.org/2000/svg">
<path d="M12.5 9.70166C10.717 9.70166 9.20142 11.2172 9.20142 13.0003C9.20142 14.7833 10.717 16.2989 12.5 16.2989C14.2831 16.2989 15.7986 14.7833 15.7986 13.0003C15.7986 11.2172 14.2831 9.70166 12.5 9.70166Z" fill="#F5F5F5"/>
<path d="M16.7283 3.104H8.36182C5.12319 3.104 2.60425 5.62294 2.60425 8.77162V17.1381C2.60425 20.3767 5.12319 22.8957 8.36182 22.8957H16.7283C19.877 22.8957 22.3959 20.3767 22.3959 17.1381V8.77162C22.3959 5.62294 19.877 3.104 16.7283 3.104ZM12.5001 18.2176C9.62129 18.2176 7.37224 15.8786 7.37224 13.0898C7.37224 10.301 9.62129 7.872 12.5001 7.872C15.3789 7.872 17.6279 10.211 17.6279 12.9998C17.6279 15.7887 15.3789 18.2176 12.5001 18.2176ZM17.8078 8.95154C17.1781 8.95154 16.6383 8.41177 16.6383 7.78203C16.6383 7.1523 17.1781 6.61253 17.8078 6.61253C18.4376 6.61253 18.9774 7.1523 18.9774 7.78203C18.9774 8.41177 18.4376 8.95154 17.8078 8.95154Z" fill="#F5F5F5"/>
</svg>
