<svg width="90" height="45" viewBox="0 0 90 45" fill="none" xmlns="http://www.w3.org/2000/svg">
<path d="M84.3842 25.648C83.1896 26.5066 81.9576 26.936 80.6882 26.936C80.2776 26.936 79.8296 26.8986 79.3442 26.824C78.8962 26.712 78.4669 26.5626 78.0562 26.376C77.6829 26.152 77.3656 25.872 77.1042 25.536C76.8056 25.2 76.6562 24.7893 76.6562 24.304C76.6562 23.744 76.8429 23.1466 77.2162 22.512C77.5896 21.84 78.0562 21.224 78.6162 20.664C79.1762 20.104 79.7736 19.6373 80.4082 19.264C81.0429 18.8906 81.6216 18.704 82.1442 18.704C82.7416 18.704 83.2083 18.984 83.5443 19.544C83.9176 20.104 84.1042 20.6453 84.1042 21.168C84.1042 21.616 83.9363 22.0266 83.6003 22.4C83.4509 22.5493 83.2456 22.736 82.9842 22.96C82.7229 23.1466 82.4429 23.3333 82.1442 23.52C81.8456 23.7066 81.5469 23.8933 81.2482 24.08C80.9869 24.2666 80.7816 24.4346 80.6322 24.584C80.3709 24.808 80.2402 25.0133 80.2402 25.2C80.2402 25.3866 80.4082 25.48 80.7442 25.48C81.1922 25.48 81.7149 25.2933 82.3122 24.92C83.3949 24.472 84.3843 23.9306 85.2803 23.296C86.2136 22.624 87.1656 21.952 88.1362 21.28C88.4722 21.056 88.8456 20.944 89.2562 20.944C89.7042 20.944 89.9282 21.0746 89.9282 21.336C89.9282 21.4853 89.8349 21.6906 89.6482 21.952C89.4616 22.176 89.1256 22.4373 88.6403 22.736C87.8936 23.2586 87.1656 23.744 86.4562 24.192C85.7842 24.64 85.0936 25.1253 84.3842 25.648ZM79.2882 22.736C79.2882 22.9973 79.4002 23.128 79.6242 23.128C79.8109 23.128 80.0536 23.072 80.3522 22.96C80.6509 22.8106 80.9309 22.6426 81.1922 22.456C81.4536 22.232 81.6776 22.008 81.8643 21.784C82.0509 21.5226 82.1442 21.28 82.1442 21.056C82.1442 20.6826 81.9763 20.496 81.6403 20.496C81.4536 20.496 81.2296 20.5893 80.9682 20.776C80.7069 20.9253 80.4456 21.1306 80.1842 21.392C79.9602 21.616 79.7549 21.8586 79.5682 22.12C79.3816 22.3813 79.2882 22.5866 79.2882 22.736Z" fill="black"/>
<path d="M70.6813 22.624C70.6066 22.2133 70.4759 21.784 70.2893 21.336C70.1026 20.8507 70.0093 20.44 70.0093 20.104C70.0093 19.88 70.0839 19.6747 70.2333 19.488C70.3826 19.3013 70.5693 19.208 70.7933 19.208C71.1293 19.208 71.4093 19.3387 71.6333 19.6C71.8573 19.824 72.0253 20.104 72.1373 20.44C72.2866 20.776 72.3799 21.1307 72.4173 21.504C72.4919 21.84 72.5293 22.1387 72.5293 22.4C72.5293 22.512 72.5293 22.6427 72.5293 22.792C72.5293 22.904 72.5666 22.9787 72.6413 23.016H72.7533C72.9399 23.016 73.0706 22.9787 73.1453 22.904C73.2199 22.8293 73.2946 22.7547 73.3693 22.68C73.9666 22.0827 74.4146 21.5787 74.7133 21.168C75.0493 20.7573 75.3666 20.104 75.6653 19.208C75.8146 18.76 76.0386 18.4053 76.3373 18.144C76.6359 17.8827 76.9533 17.752 77.2893 17.752C77.5506 17.752 77.8119 17.8453 78.0733 18.032C78.3346 18.1813 78.4653 18.4053 78.4653 18.704C78.4653 18.9653 78.3719 19.2453 78.1853 19.544C78.0359 19.8053 77.8493 20.0667 77.6253 20.328C77.4013 20.5893 77.1586 20.832 76.8973 21.056C76.6733 21.2427 76.5053 21.392 76.3933 21.504C75.6466 22.1013 74.9933 22.7733 74.4333 23.52C73.8733 24.2667 73.3319 25.032 72.8093 25.816C72.7346 25.8907 72.6599 25.984 72.5853 26.096C72.5479 26.208 72.4919 26.3013 72.4173 26.376C72.2679 26.5627 72.1186 26.7493 71.9693 26.936C71.8199 27.0853 71.6519 27.16 71.4653 27.16C71.2039 27.16 70.9986 27.0853 70.8493 26.936C70.7373 26.7493 70.6813 26.544 70.6813 26.32C70.6813 25.76 70.6999 25.3307 70.7373 25.032C70.7746 24.696 70.7933 24.36 70.7933 24.024C70.7933 23.8373 70.7746 23.632 70.7373 23.408C70.7373 23.184 70.7186 22.9227 70.6813 22.624Z" fill="black"/>
<path d="M66.6108 25.648C65.4161 26.5066 64.1841 26.936 62.9148 26.936C62.5041 26.936 62.0561 26.8986 61.5708 26.824C61.1228 26.712 60.6935 26.5626 60.2828 26.376C59.9095 26.152 59.5921 25.872 59.3308 25.536C59.0321 25.2 58.8828 24.7893 58.8828 24.304C58.8828 23.744 59.0695 23.1466 59.4428 22.512C59.8161 21.84 60.2828 21.224 60.8428 20.664C61.4028 20.104 62.0001 19.6373 62.6348 19.264C63.2695 18.8906 63.8481 18.704 64.3708 18.704C64.9681 18.704 65.4348 18.984 65.7708 19.544C66.1442 20.104 66.3308 20.6453 66.3308 21.168C66.3308 21.616 66.1628 22.0266 65.8268 22.4C65.6775 22.5493 65.4721 22.736 65.2108 22.96C64.9495 23.1466 64.6695 23.3333 64.3708 23.52C64.0721 23.7066 63.7735 23.8933 63.4748 24.08C63.2135 24.2666 63.0081 24.4346 62.8588 24.584C62.5975 24.808 62.4668 25.0133 62.4668 25.2C62.4668 25.3866 62.6348 25.48 62.9708 25.48C63.4188 25.48 63.9415 25.2933 64.5388 24.92C65.6215 24.472 66.6108 23.9306 67.5068 23.296C68.4402 22.624 69.3921 21.952 70.3628 21.28C70.6988 21.056 71.0721 20.944 71.4828 20.944C71.9308 20.944 72.1548 21.0746 72.1548 21.336C72.1548 21.4853 72.0615 21.6906 71.8748 21.952C71.6881 22.176 71.3522 22.4373 70.8668 22.736C70.1202 23.2586 69.3921 23.744 68.6828 24.192C68.0108 24.64 67.3201 25.1253 66.6108 25.648ZM61.5148 22.736C61.5148 22.9973 61.6268 23.128 61.8508 23.128C62.0375 23.128 62.2801 23.072 62.5788 22.96C62.8775 22.8106 63.1575 22.6426 63.4188 22.456C63.6801 22.232 63.9042 22.008 64.0908 21.784C64.2775 21.5226 64.3708 21.28 64.3708 21.056C64.3708 20.6826 64.2028 20.496 63.8668 20.496C63.6801 20.496 63.4561 20.5893 63.1948 20.776C62.9335 20.9253 62.6721 21.1306 62.4108 21.392C62.1868 21.616 61.9815 21.8586 61.7948 22.12C61.6081 22.3813 61.5148 22.5866 61.5148 22.736Z" fill="black"/>
<path d="M12.6 24.024C14.5413 23.688 16.1093 23.4827 17.304 23.408C18.536 23.3333 19.544 23.296 20.328 23.296C21.112 23.2587 21.728 23.2213 22.176 23.184C22.6613 23.1093 23.1093 22.9227 23.52 22.624C23.9307 22.3253 24.36 21.8773 24.808 21.28C25.2933 20.6453 25.928 19.7493 26.712 18.592C27.5333 17.3973 28.56 15.904 29.792 14.112C31.024 12.32 32.6107 10.0987 34.552 7.448C35.2613 6.51467 35.84 5.88 36.288 5.544C36.7733 5.17067 37.1653 4.984 37.464 4.984C37.8 4.984 38.0427 5.13333 38.192 5.432C38.3413 5.73067 38.416 5.992 38.416 6.216C37.856 7.112 37.4267 7.784 37.128 8.232C36.8667 8.64267 36.6427 8.92266 36.456 9.072C36.3067 9.22133 36.176 9.296 36.064 9.296C35.9893 9.296 35.896 9.31467 35.784 9.352C35.672 9.38933 35.504 9.52 35.28 9.744C35.056 9.93067 34.7387 10.3227 34.328 10.92L26.152 22.68C26.5627 22.8667 27.16 23.016 27.944 23.128C28.7653 23.2027 29.6053 23.2587 30.464 23.296C31.36 23.3333 32.2 23.3707 32.984 23.408C33.768 23.4453 34.328 23.52 34.664 23.632C34.9627 23.7067 35.28 23.744 35.616 23.744C36.5493 23.744 37.8747 23.5947 39.592 23.296C41.3093 22.96 43.1947 22.512 45.248 21.952C47.3013 21.3547 49.392 20.664 51.52 19.88C53.648 19.096 55.5707 18.2373 57.288 17.304C59.0427 16.3333 60.4613 15.3067 61.544 14.224C62.664 13.1413 63.224 12.04 63.224 10.92C63.224 10.0987 62.888 9.31466 62.216 8.568C61.5813 7.784 60.7413 7.07467 59.696 6.44C58.688 5.80533 57.5493 5.22667 56.28 4.704C55.0107 4.18133 53.76 3.752 52.528 3.416C51.296 3.04267 50.1387 2.76267 49.056 2.576C47.9733 2.352 47.1147 2.24 46.48 2.24L45.696 2.184C43.792 1.848 41.552 1.68 38.976 1.68C36.5493 1.68 33.936 1.81067 31.136 2.072C28.3733 2.33333 25.6107 2.688 22.848 3.136C20.0853 3.584 17.4347 4.12533 14.896 4.76C12.3573 5.35733 10.0987 6.01067 8.12 6.72C6.17867 7.392 4.62933 8.12 3.472 8.904C2.31467 9.65067 1.736 10.3787 1.736 11.088C1.736 11.424 1.848 11.7227 2.072 11.984C2.52 12.544 2.744 12.992 2.744 13.328C2.744 13.5893 2.59467 13.72 2.296 13.72C2.10933 13.72 1.88533 13.664 1.624 13.552C1.36267 13.44 1.10133 13.272 0.84 13.048C0.616 12.824 0.410667 12.5627 0.224 12.264C0.0746667 11.9653 0 11.6293 0 11.256C0 10.6587 0.28 9.98666 0.84 9.24C1.43733 8.456 2.52 7.65333 4.088 6.832C5.656 5.97333 7.80267 5.11466 10.528 4.256C13.2907 3.39733 16.8187 2.576 21.112 1.792C23.7253 1.30667 26.544 0.896 29.568 0.559999C32.592 0.186666 35.6907 0 38.864 0C41.104 0 43.3253 0.112 45.528 0.335999C47.768 0.559999 49.9333 0.951998 52.024 1.512C54.1147 2.03466 56.0933 2.744 57.96 3.64C59.864 4.536 61.6 5.63733 63.168 6.944C64.4747 8.10133 65.128 9.408 65.128 10.864C65.128 11.8347 64.8667 12.8053 64.344 13.776C63.8213 14.7093 63.0933 15.5307 62.16 16.24C60.368 17.6213 58.5013 18.76 56.56 19.656C54.6187 20.5147 52.7333 21.2427 50.904 21.84C49.112 22.4373 47.4133 22.9413 45.808 23.352C44.24 23.7253 42.9333 24.136 41.888 24.584C45.0613 25.2187 48.4587 26.0213 52.08 26.992C55.7013 27.9253 59.248 29.12 62.72 30.576C66.192 32.032 69.44 33.7867 72.464 35.84C75.488 37.8933 77.952 40.3013 79.856 43.064C79.9307 43.1387 80.0053 43.2507 80.08 43.4C80.1547 43.5867 80.192 43.7547 80.192 43.904C80.192 44.1653 80.0427 44.296 79.744 44.296C79.4827 44.184 79.0347 43.8107 78.4 43.176C77.8027 42.5787 76.9627 41.8133 75.88 40.88C74.7973 39.9467 73.4533 38.8827 71.848 37.688C70.28 36.5307 68.376 35.3547 66.136 34.16C63.896 32.9653 61.3013 31.808 58.352 30.688C55.4027 29.568 52.0427 28.5787 48.272 27.72C46.6667 27.3467 45.024 27.0293 43.344 26.768C41.7013 26.5067 39.7787 26.208 37.576 25.872L22.176 28.896L18.032 36.232C18.2187 36.4187 18.312 36.624 18.312 36.848C18.312 37.1467 18.1627 37.408 17.864 37.632C17.5653 37.8933 17.248 38.024 16.912 38.024C16.3147 38.024 16.016 37.632 16.016 36.848C16.016 36.4373 16.1093 35.9707 16.296 35.448C16.4827 34.9253 16.7067 34.4027 16.968 33.88C17.2293 33.3573 17.4907 32.8533 17.752 32.368C18.0507 31.92 18.312 31.528 18.536 31.192C19.096 30.3707 19.376 29.8293 19.376 29.568C19.376 29.3067 19.1147 29.176 18.592 29.176C17.9573 29.176 16.912 29.288 15.456 29.512C14 29.6987 12.0773 29.792 9.688 29.792C9.31467 29.792 8.92267 29.792 8.512 29.792C8.13867 29.792 7.74667 29.7733 7.336 29.736C6.92533 29.6987 6.44 29.4933 5.88 29.12C5.32 28.7467 5.04 28.28 5.04 27.72C5.04 27.4213 5.152 27.104 5.376 26.768C5.63733 26.432 6.048 26.1147 6.608 25.816C7.20533 25.48 7.98933 25.1627 8.96 24.864C9.93067 24.5653 11.144 24.2853 12.6 24.024ZM7.392 27.72C7.35467 27.944 7.52267 28.0933 7.896 28.168C8.30667 28.2427 8.82933 28.28 9.464 28.28C10.36 28.28 11.3867 28.2427 12.544 28.168C13.7387 28.056 14.896 27.944 16.016 27.832C17.136 27.6827 18.1067 27.552 18.928 27.44C19.7867 27.2907 20.3093 27.1787 20.496 27.104C20.7573 26.88 21 26.6747 21.224 26.488C21.4107 26.3013 21.5787 26.1333 21.728 25.984C21.8773 25.7973 21.952 25.6293 21.952 25.48C21.952 25.1813 21.6347 25.032 21 25.032C20.552 25.032 19.936 25.0507 19.152 25.088C18.368 25.1253 17.5093 25.2 16.576 25.312C15.68 25.3867 14.728 25.4987 13.72 25.648C12.7493 25.76 11.8347 25.928 10.976 26.152C10.1547 26.3387 9.408 26.5627 8.736 26.824C8.10133 27.0853 7.65333 27.384 7.392 27.72ZM28 25.032C27.4773 25.032 27.0293 25.032 26.656 25.032C26.32 24.9947 26.0027 24.976 25.704 24.976C25.1813 24.976 24.7707 25.0507 24.472 25.2C24.2107 25.3493 23.968 25.704 23.744 26.264C23.7067 26.4133 23.8747 26.488 24.248 26.488C24.6213 26.488 25.144 26.432 25.816 26.32C26.488 26.208 27.16 26.0773 27.832 25.928C28.504 25.7787 29.1013 25.6293 29.624 25.48C30.184 25.3307 30.5387 25.2373 30.688 25.2L28 25.032Z" fill="black"/>
</svg>
