<svg width="24" height="24" viewBox="0 0 24 24" fill="none" xmlns="http://www.w3.org/2000/svg">
<path d="M10.6609 19.0299L10.66 19.0291C8.14446 16.7481 6.10517 14.8976 4.68754 13.1644C3.27679 11.4396 2.54446 9.9043 2.54446 8.26389C2.54446 5.60081 4.62861 3.51667 7.29168 3.51667C8.80168 3.51667 10.2603 4.22253 11.2099 5.33761L11.6667 5.87405L12.1235 5.33761C13.0731 4.22253 14.5317 3.51667 16.0417 3.51667C18.7048 3.51667 20.7889 5.60081 20.7889 8.26389C20.7889 9.90431 20.0566 11.4397 18.6457 13.1658C17.2291 14.8989 15.1919 16.7502 12.679 19.0338L12.6742 19.0381L12.6729 19.0393L11.6682 19.947L10.6609 19.0299Z" stroke="#222222" stroke-width="1.2"/>
</svg>
