<svg width="24" height="24" viewBox="0 0 24 24" fill="none" xmlns="http://www.w3.org/2000/svg">
<path fill-rule="evenodd" clip-rule="evenodd" d="M5 9C4.44772 9 4 9.44772 4 10V20C4 20.5523 4.44772 21 5 21H19C19.5523 21 20 20.5523 20 20V10C20 9.44772 19.5523 9 19 9H5ZM12 17C13.1046 17 14 16.1046 14 15C14 13.8954 13.1046 13 12 13C10.8954 13 10 13.8954 10 15C10 16.1046 10.8954 17 12 17Z" fill="#F5F5F5"/>
<path fill-rule="evenodd" clip-rule="evenodd" d="M7 8C7 5.23858 9.23858 3 12 3C14.7614 3 17 5.23858 17 8V11H15V8C15 6.34315 13.6569 5 12 5C10.3431 5 9 6.34315 9 8V11H7V8Z" fill="#F5F5F5"/>
</svg>
