<svg width="24" height="24" viewBox="0 0 24 24" fill="none" xmlns="http://www.w3.org/2000/svg">
<path fill-rule="evenodd" clip-rule="evenodd" d="M5.5 10.25C5.5 7.62665 7.62665 5.5 10.25 5.5C12.8734 5.5 15 7.62665 15 10.25C15 12.8734 12.8734 15 10.25 15C7.62665 15 5.5 12.8734 5.5 10.25ZM10.25 4C6.79822 4 4 6.79822 4 10.25C4 13.7018 6.79822 16.5 10.25 16.5C11.6513 16.5 12.9448 16.0388 13.9872 15.26L19.7272 21L21 19.7272L15.26 13.9872C16.0388 12.9449 16.5 11.6513 16.5 10.25C16.5 6.79822 13.7018 4 10.25 4Z" fill="#555555"/>
</svg>
