<svg width="26" height="26" viewBox="0 0 26 26" fill="none" xmlns="http://www.w3.org/2000/svg">
<path fill-rule="evenodd" clip-rule="evenodd" d="M21.956 5.4121C22.9424 5.67486 23.7185 6.45505 23.9813 7.44949C24.4583 9.24838 24.4543 12.9998 24.4543 12.9998C24.4543 12.9998 24.4543 16.7512 23.9772 18.5501C23.7145 19.5405 22.9383 20.3207 21.952 20.5875C20.1652 21.0685 12.9979 21.0685 12.9979 21.0685C12.9979 21.0685 5.83067 21.0685 4.0439 20.5875C3.05755 20.3247 2.28139 19.5445 2.01864 18.5501C1.54163 16.7512 1.54163 12.9998 1.54163 12.9998C1.54163 12.9998 1.54163 9.24838 2.02268 7.44545C2.28544 6.45505 3.06159 5.67486 4.04795 5.40805C5.83471 4.927 13.002 4.927 13.002 4.927C13.002 4.927 20.1652 4.927 21.956 5.4121ZM10.6573 9.59205V16.4076L16.6482 12.9998L10.6573 9.59205Z" fill="#F5F5F5"/>
</svg>
