<svg width="24" height="24" viewBox="0 0 24 24" fill="none" xmlns="http://www.w3.org/2000/svg">
<path fill-rule="evenodd" clip-rule="evenodd" d="M3 9C2.44772 9 2 9.44772 2 10V20C2 20.5523 2.44772 21 3 21H17C17.5523 21 18 20.5523 18 20V10C18 9.44772 17.5523 9 17 9H3ZM10 17C11.1046 17 12 16.1046 12 15C12 13.8954 11.1046 13 10 13C8.89543 13 8 13.8954 8 15C8 16.1046 8.89543 17 10 17Z" fill="black"/>
<path fill-rule="evenodd" clip-rule="evenodd" d="M13 8C13 5.23858 15.2386 3 18 3C20.7614 3 23 5.23858 23 8V11H21V8C21 6.34315 19.6569 5 18 5C16.3431 5 15 6.34315 15 8V11H13V8Z" fill="black"/>
</svg>
