<svg width="24" height="24" viewBox="0 0 24 24" fill="none" xmlns="http://www.w3.org/2000/svg">
<path fill-rule="evenodd" clip-rule="evenodd" d="M9.75 7C9.75 5.75736 10.7574 4.75 12 4.75C13.2426 4.75 14.25 5.75736 14.25 7C14.25 8.24264 13.2426 9.25 12 9.25C10.7574 9.25 9.75 8.24264 9.75 7ZM12 3.25C9.92893 3.25 8.25 4.92893 8.25 7C8.25 9.07107 9.92893 10.75 12 10.75C14.0711 10.75 15.75 9.07107 15.75 7C15.75 4.92893 14.0711 3.25 12 3.25ZM5.5 21H4V17C4 14.2386 6.23858 12 9 12H15C17.7614 12 20 14.2386 20 17V21H18.5V17C18.5 15.067 16.933 13.5 15 13.5H9C7.067 13.5 5.5 15.067 5.5 17V21Z" fill="#555555"/>
</svg>
